<svg xmlns="http://www.w3.org/2000/svg" width="880" height="182" viewBox="0 0 880 182" font-family="ui-monospace,&#39;SFMono-Regular&#39;,&#39;SF Mono&#39;,&#39;Cascadia Code&#39;,&#39;Roboto Mono&#39;,Menlo,Consolas,&#39;Liberation Mono&#39;,monospace"><rect x="0.5" y="0.5" width="283" height="181" rx="14" fill="#ffffff" stroke="#e6dfd0"></rect><text x="16" y="26" font-size="11" fill="#1f8a4c">01</text><rect x="188" y="12" width="80" height="18" rx="9" fill="none" stroke="#e6dfd0"></rect><text x="228" y="24.5" text-anchor="middle" font-size="9" letter-spacing="1" fill="#8c8677">E-LEARNING</text><text x="16" y="54" font-family="&#39;Segoe UI&#39;,system-ui,-apple-system,&#39;Helvetica Neue&#39;,Arial,sans-serif" font-size="17" font-weight="600" fill="#1b1a16">Koriye Academy</text><text x="16" y="76" font-size="11.5" fill="#6d685c">Forex-trading academy for Somali</text><text x="16" y="93" font-size="11.5" fill="#6d685c">learners — tiered memberships,</text><text x="16" y="110" font-size="11.5" fill="#6d685c">automated payments, live mentor-</text><text x="16" y="127" font-size="11.5" fill="#6d685c">ship &amp; weekly market analysis.</text><rect x="16" y="158" width="57.4" height="17" rx="5" fill="#e7effb"></rect><text x="44.7" y="170" text-anchor="middle" font-size="9.5" fill="#2f6fd0">Express</text><rect x="78.4" y="158" width="32.6" height="17" rx="5" fill="#f6ecdc"></rect><text x="94.7" y="170" text-anchor="middle" font-size="9.5" fill="#b06f1c">SEO</text><rect x="116" y="158" width="76" height="17" rx="5" fill="#e2f1e7"></rect><text x="154" y="170" text-anchor="middle" font-size="9.5" fill="#1f8a4c">PostgreSQL</text><rect x="298.5" y="0.5" width="283" height="181" rx="14" fill="#ffffff" stroke="#e6dfd0"></rect><text x="314" y="26" font-size="11" fill="#1f8a4c">02</text><rect x="511.6" y="12" width="54.400000000000006" height="18" rx="9" fill="none" stroke="#e6dfd0"></rect><text x="538.8000000000001" y="24.5" text-anchor="middle" font-size="9" letter-spacing="1" fill="#8c8677">AGENCY</text><text x="314" y="54" font-family="&#39;Segoe UI&#39;,system-ui,-apple-system,&#39;Helvetica Neue&#39;,Arial,sans-serif" font-size="17" font-weight="600" fill="#1b1a16">Goodir Technology</text><text x="314" y="76" font-size="11.5" fill="#6d685c">Studio brand &amp; portfolio — a</text><text x="314" y="93" font-size="11.5" fill="#6d685c">Next.js marketing build with a CMS-</text><text x="314" y="110" font-size="11.5" fill="#6d685c">driven showcase, animated case</text><text x="314" y="127" font-size="11.5" fill="#6d685c">studies and a client pipeline.</text><rect x="314" y="158" width="57.4" height="17" rx="5" fill="#ece6d8"></rect><text x="342.7" y="170" text-anchor="middle" font-size="9.5" fill="#1b1a16">Next.js</text><rect x="376.4" y="158" width="32.6" height="17" rx="5" fill="#f6ecdc"></rect><text x="392.7" y="170" text-anchor="middle" font-size="9.5" fill="#b06f1c">SEO</text><rect x="414" y="158" width="32.6" height="17" rx="5" fill="#e2f1e7"></rect><text x="430.3" y="170" text-anchor="middle" font-size="9.5" fill="#1f8a4c">CMS</text><rect x="596.5" y="0.5" width="283" height="181" rx="14" fill="#ffffff" stroke="#e6dfd0"></rect><text x="612" y="26" font-size="11" fill="#1f8a4c">03</text><rect x="784" y="12" width="80" height="18" rx="9" fill="none" stroke="#e6dfd0"></rect><text x="824" y="24.5" text-anchor="middle" font-size="9" letter-spacing="1" fill="#8c8677">PUBLISHING</text><text x="612" y="54" font-family="&#39;Segoe UI&#39;,system-ui,-apple-system,&#39;Helvetica Neue&#39;,Arial,sans-serif" font-size="17" font-weight="600" fill="#1b1a16">Ambaqaad</text><text x="612" y="76" font-size="11.5" fill="#6d685c">Somali digital magazine — a pub-</text><text x="612" y="93" font-size="11.5" fill="#6d685c">lishing platform organizing essays</text><text x="612" y="110" font-size="11.5" fill="#6d685c">across 7 categories into clean</text><text x="612" y="127" font-size="11.5" fill="#6d685c">reading sections.</text><rect x="612" y="158" width="57.4" height="17" rx="5" fill="#ece6d8"></rect><text x="640.7" y="170" text-anchor="middle" font-size="9.5" fill="#1b1a16">Next.js</text><rect x="674.4" y="158" width="32.6" height="17" rx="5" fill="#f6ecdc"></rect><text x="690.6999999999999" y="170" text-anchor="middle" font-size="9.5" fill="#b06f1c">SEO</text><rect x="712" y="158" width="32.6" height="17" rx="5" fill="#e2f1e7"></rect><text x="728.3" y="170" text-anchor="middle" font-size="9.5" fill="#1f8a4c">CMS</text></svg>